<svg aria-hidden="true" focusable="false" data-prefix="fas" data-icon="acupuncture" class="svg-inline--fa fa-acupuncture fa-w-18" role="img" xmlns="http://www.w3.org/2000/svg" viewBox="0 0 600 600">
<path fill="currentColor" d="M200.2,162.7l-0.1-46.3c0-26.7,21.7-48.4,48.3-48.4c7.7,0,15,1.9,21.5,5.1c7.2-17.7,24.5-30.3,44.8-30.3c22.9,0,42,16,47,37.4c5.9-2.6,12.4-4,19.3-4c24.3,0,44.3,18,47.8,41.3c5.7-2.4,12-3.7,18.5-3.7c26.6,0,48.3,21.7,48.3,48.3V279h-30.4V162.2c0-9.9-8.1-18-18-18s-18,8.1-18,18v102.2h-30.4V124.6c0-9.9-8.1-18-18-18s-18,8.1-18,18v139.8h-30.4V91.2c0-9.9-8.1-18-18-18s-18,8.1-18,18v173.2h-30.4v-148c0-9.9-8.1-18-18-18c-9.9,0-18,8.1-18,18l0.1,46.2L200.2,162.7z M199.9,424.3l-91.4-91.4c-4.2-4.2-6.5-9.8-6.5-15.7s2.3-11.5,6.5-15.7c4.2-4.2,9.8-6.5,15.7-6.5c5.9,0,11.5,2.3,15.6,6.4l91.1,93.1l-0.3-171.1l-30.4,0.1l0.2,96.5l-39-39.9c-9.9-9.9-23.1-15.4-37.2-15.4c-14,0-27.2,5.5-37.2,15.4c-9.9,9.9-15.4,23.1-15.4,37.2c0,14,5.5,27.2,15.4,37.2l91.4,91.4L199.9,424.3z M465.2,395.1c0,75.8-49.4,130.8-117.4,130.8c-10,0-19.8-1.2-29.4-3.7l-7.6,29.4c12,3.1,24.4,4.7,36.9,4.7c84.2,0,147.8-69.3,147.8-161.1v-7.4h-30.4V395.1z M163.4,230.1H70.9c-21.7,0-39.3-17.6-39.3-39.3s17.6-39.3,39.3-39.3h92.5v26.5h69.8c8.4,0,15.2,6.8,15.2,15.2s-6.8,15.2-15.2,15.2h-69.8V230.1z M133,181.8H70.9c-4.9,0-8.9,4-8.9,8.9s4,8.9,8.9,8.9H133V181.8z M303.8,500.6c0,8.4-6.8,15.2-15.2,15.2h-69.8v21.8h-92.5c-21.7,0-39.3-17.6-39.3-39.3s17.6-39.3,39.3-39.3h92.5v26.5h69.8C297.1,485.4,303.8,492.2,303.8,500.6z M188.5,489.3h-62.1c-4.9,0-8.9,4-8.9,8.9s4,8.9,8.9,8.9h62.1V489.3z M567.7,333.5c0,21.7-17.6,39.3-39.3,39.3h-92.5v-26.5H354c-8.4,0-15.2-6.8-15.2-15.2S345.6,316,354,316h81.9v-21.8h92.5C550.1,294.2,567.7,311.8,567.7,333.5z M537.4,333.5c0-4.9-4-8.9-8.9-8.9h-62.1v17.9h62.1C533.3,342.4,537.4,338.4,537.4,333.5z"/>
</svg>