<svg aria-hidden="true" focusable="false" data-prefix="fas" data-icon="chiropractors" class="svg-inline--fa fa-chiropractors fa-w-18" role="img" xmlns="http://www.w3.org/2000/svg" viewBox="0 0 600 600">
<path fill="currentColor" d="M254.9,138.1c-4.2-5.8-2.9-13.9,2.9-18.2c5.8-4.2,13.9-2.9,18.2,2.9c5.7,7.8,14.4,12.3,24,12.3c9.6,0,18.4-4.5,24-12.3c4.2-5.8,12.3-7.1,18.2-2.9c5.8,4.2,7.1,12.3,2.9,18.2c-10.5,14.4-27.3,23.1-45.1,23.1C282.2,161.2,265.4,152.6,254.9,138.1z M425.5,302.6h-19.8c3.6,11,5.5,22.6,5.5,34.5c0,1.4,0,2.8-0.1,4.1h14.4c21,0,38.2,17.1,38.2,38.2s-17.1,38.2-38.2,38.2h-19.8c3.6,11,5.5,22.6,5.5,34.5c0,1.4,0,2.8-0.1,4.1h14.4c21,0,38.2,17.1,38.2,38.2s-17.1,38.2-38.2,38.2h-48.9c-20.8,19.9-47.8,30.7-76.6,30.7s-55.9-10.9-76.6-30.7h-48.9c-21,0-38.2-17.1-38.2-38.2s17.1-38.2,38.2-38.2h14.4c-0.1-1.4-0.1-2.8-0.1-4.1c0-11.8,1.9-23.4,5.5-34.5h-19.8c-21,0-38.2-17.1-38.2-38.2s17.1-38.2,38.2-38.2h14.4c-0.1-1.4-0.1-2.8-0.1-4.1c0-11.8,1.9-23.4,5.5-34.5h-19.8c-21,0-38.2-17.1-38.2-38.2s17.1-38.2,38.2-38.2h14.4c-0.1-1.4-0.1-2.8-0.1-4.1c0-11.8,1.9-23.4,5.5-34.5h-19.8c-21,0-38.2-17.1-38.2-38.2s17.1-38.2,38.2-38.2h14.4c-0.1-1.4-0.1-2.8-0.1-4.1c0-23.5,7.3-46,21.2-65.1c2.4-3.4,6.4-5.4,10.5-5.4c4.2,0,8.1,2,10.5,5.4c16,22.1,41.8,35.4,69,35.4c27.2,0,53-13.2,69-35.4c2.4-3.4,6.4-5.4,10.5-5.4s8.1,2,10.5,5.4c13.8,19.1,21.2,41.6,21.2,65.1c0,1.4,0,2.8-0.1,4.1h14.4c21,0,38.2,17.1,38.2,38.2s-17.1,38.2-38.2,38.2h-19.8c3.6,11,5.5,22.6,5.5,34.5c0,1.4,0,2.8-0.1,4.1h14.4c21,0,38.2,17.1,38.2,38.2S446.6,302.6,425.5,302.6z M206.8,161.7c1-1.6,2.1-3.1,3.2-4.6c2.4-3.4,6.4-5.4,10.5-5.4c4.2,0,8.1,2,10.5,5.4c2.4,3.3,5,6.4,7.9,9.4c0.5,0.5,0.9,0.9,1.4,1.4c0.8,0.8,1.6,1.5,2.4,2.3c0.1,0.1,0.2,0.2,0.3,0.3c13,11.7,29.3,19.2,46.7,21.4c0.1,0,0.2,0,0.3,0c0.7,0.1,1.4,0.2,2.1,0.2c1,0.1,2,0.2,3.1,0.2c0.3,0,0.7,0,1,0c1.3,0.1,2.5,0.1,3.8,0.1c1.3,0,2.5,0,3.8-0.1c0.3,0,0.7,0,1,0c1-0.1,2.1-0.1,3.1-0.2c0.7-0.1,1.4-0.1,2.1-0.2c0.1,0,0.2,0,0.3,0c17.3-2.2,33.7-9.7,46.6-21.3c0.1-0.1,0.3-0.3,0.4-0.4c0.8-0.7,1.5-1.4,2.3-2.1c0.5-0.5,1-1,1.5-1.5c2.8-2.9,5.4-6,7.8-9.3c2.4-3.4,6.4-5.4,10.5-5.4s8.1,2,10.5,5.4c1.1,1.5,2.1,3.1,3.2,4.6h32.3c6.7,0,12.2-5.5,12.2-12.2s-5.5-12.2-12.2-12.2h-28.9c-3.8,0-7.5-1.7-10-4.6c-2.5-2.9-3.5-6.8-2.8-10.6c0.9-5.3,1.4-10.2,1.4-14.9c0-12.3-2.6-24.3-7.7-35.3c-20.6,20-48.4,31.6-77.5,31.6s-56.9-11.6-77.5-31.6c-5.1,11-7.7,23-7.7,35.3c0,4.7,0.5,9.6,1.4,14.9c0.7,3.8-0.4,7.7-2.8,10.6c-2.5,2.9-6.1,4.6-10,4.6h-28.9c-6.7,0-12.2,5.5-12.2,12.2s5.5,12.2,12.2,12.2H206.8z M377.9,417.6h-1.2c-20.8,19.9-47.8,30.7-76.6,30.7c-28.9,0-55.9-10.9-76.6-30.7h-1.2c-4.8,10.8-7.3,22.5-7.3,34.5c0,4.7,0.5,9.6,1.4,14.9c0.7,3.8-0.4,7.7-2.8,10.6c-2.5,2.9-6.1,4.6-10,4.6h-28.9c-6.7,0-12.2,5.5-12.2,12.2s5.5,12.2,12.2,12.2h54.3c3.6,0,7,1.5,9.4,4.1c16.3,17.2,38.2,26.7,61.8,26.7s45.5-9.5,61.8-26.7c2.5-2.6,5.9-4.1,9.4-4.1h54.3c6.7,0,12.2-5.5,12.2-12.2s-5.5-12.2-12.2-12.2h-28.9c-3.8,0-7.5-1.7-10-4.6c-2.5-2.9-3.5-6.8-2.8-10.6c0.9-5.3,1.4-10.2,1.4-14.9C385.2,440.1,382.7,428.4,377.9,417.6z M377.9,302.6h-1.2c-20.8,19.9-47.8,30.7-76.6,30.7c-28.9,0-55.9-10.9-76.6-30.7h-1.2c-4.8,10.8-7.3,22.5-7.3,34.5c0,4.7,0.5,9.6,1.4,14.9c0.7,3.8-0.4,7.7-2.8,10.6c-2.5,2.9-6.1,4.6-10,4.6h-28.9c-6.7,0-12.2,5.5-12.2,12.2c0,6.7,5.5,12.2,12.2,12.2h32.3c1-1.6,2.1-3.1,3.2-4.6c2.4-3.4,6.4-5.4,10.5-5.4c4.2,0,8.1,2,10.5,5.4c2.4,3.3,5.1,6.5,7.9,9.4c0.4,0.4,0.9,0.9,1.3,1.3c0.8,0.8,1.6,1.6,2.5,2.4c0.1,0.1,0.2,0.2,0.3,0.3c13,11.7,29.3,19.2,46.7,21.4c0.1,0,0.2,0,0.3,0c0.7,0.1,1.4,0.2,2.1,0.2c1,0.1,2,0.2,3.1,0.2c0.3,0,0.7,0,1,0c1.3,0.1,2.5,0.1,3.8,0.1c1.3,0,2.5,0,3.8-0.1c0.3,0,0.7,0,1,0c1-0.1,2.1-0.1,3.1-0.2c0.7-0.1,1.4-0.1,2.1-0.2c0.1,0,0.2,0,0.3,0c17.4-2.2,33.7-9.7,46.7-21.4c0.1-0.1,0.2-0.2,0.4-0.3c0.8-0.7,1.6-1.5,2.4-2.2c0.5-0.5,1-1,1.4-1.4c2.8-2.9,5.4-6,7.9-9.3c2.4-3.4,6.4-5.4,10.5-5.4c4.2,0,8.1,2,10.5,5.4c1.1,1.5,2.1,3.1,3.2,4.6h32.3c6.7,0,12.2-5.5,12.2-12.2c0-6.7-5.5-12.2-12.2-12.2h-28.9c-3.8,0-7.5-1.7-10-4.6c-2.5-2.9-3.5-6.8-2.8-10.6c0.9-5.3,1.4-10.2,1.4-14.9C385.2,325.1,382.7,313.4,377.9,302.6z M393.2,276.6h32.3c6.7,0,12.2-5.5,12.2-12.2s-5.5-12.2-12.2-12.2h-28.9c-3.8,0-7.5-1.7-10-4.6c-2.5-2.9-3.5-6.8-2.8-10.6c0.9-5.3,1.4-10.2,1.4-14.9c0-12-2.5-23.7-7.3-34.5h-1.2c-20.8,19.9-47.8,30.7-76.6,30.7c-28.9,0-55.9-10.9-76.6-30.7h-1.2c-4.8,10.8-7.3,22.5-7.3,34.5c0,4.7,0.5,9.6,1.4,14.9c0.7,3.8-0.4,7.7-2.8,10.6c-2.5,2.9-6.1,4.6-10,4.6h-28.9c-6.7,0-12.2,5.5-12.2,12.2s5.5,12.2,12.2,12.2h32.3c1-1.6,2.1-3.1,3.2-4.6c2.4-3.4,6.4-5.4,10.5-5.4s8.1,2,10.5,5.4c2.4,3.3,5.1,6.5,7.9,9.4c0.4,0.4,0.9,0.9,1.3,1.3c0.8,0.8,1.6,1.6,2.5,2.4c0.1,0.1,0.2,0.2,0.3,0.3c13,11.7,29.3,19.2,46.7,21.4c0.1,0,0.2,0,0.3,0c0.7,0.1,1.4,0.2,2.1,0.2c1,0.1,2,0.2,3.1,0.2c0.3,0,0.7,0,1,0c1.3,0.1,2.5,0.1,3.8,0.1s2.5,0,3.8-0.1c0.3,0,0.7,0,1,0c1-0.1,2.1-0.1,3.1-0.2c0.7-0.1,1.4-0.1,2.1-0.2c0.1,0,0.2,0,0.3,0c17.4-2.2,33.7-9.7,46.7-21.4c0.1-0.1,0.3-0.2,0.4-0.4c0.8-0.7,1.6-1.5,2.3-2.2c0.5-0.5,1-1,1.5-1.5c2.8-2.9,5.4-6,7.8-9.3c2.4-3.4,6.4-5.4,10.5-5.4s8.1,2,10.5,5.4C391.1,273.5,392.2,275.1,393.2,276.6z M342.2,234.9c-5.8-4.2-13.9-2.9-18.2,2.9c-5.7,7.8-14.4,12.3-24,12.3c-9.6,0-18.4-4.5-24-12.3c-4.2-5.8-12.3-7.1-18.2-2.9c-5.8,4.2-7.1,12.3-2.9,18.2c10.5,14.5,27.3,23.1,45.1,23.1c17.8,0,34.6-8.6,45.1-23.1C349.3,247.3,348,239.1,342.2,234.9z M342.2,349.9c-5.8-4.2-13.9-2.9-18.2,2.9c-5.7,7.8-14.4,12.3-24,12.3c-9.6,0-18.4-4.5-24-12.3c-4.2-5.8-12.3-7.1-18.2-2.9c-5.8,4.2-7.1,12.3-2.9,18.2c10.5,14.5,27.3,23.1,45.1,23.1c17.8,0,34.6-8.6,45.1-23.1C349.3,362.2,348,354.1,342.2,349.9z M343.2,464.8c-5.8-4.2-13.9-2.9-18.2,2.9c-5.7,7.8-14.4,12.3-24,12.3s-18.4-4.5-24-12.3c-4.2-5.8-12.3-7.1-18.2-2.9c-5.8,4.2-7.1,12.3-2.9,18.2c10.5,14.5,27.3,23.1,45.1,23.1c17.8,0,34.6-8.6,45.1-23.1C350.3,477.2,349,469,343.2,464.8z"/>
</svg>