<svg  class="logo-bizone logo__v5" x="0px" y="0px" viewBox="0 0 336 100" enable-background="new 0 0 336 100" xml:space="preserve">
	<path fill="#FFFFFF" d="M88.3,41.2H84L82.7,49h-6.4l4.5-25.6h10.9c2.7,0,4.6,0.6,5.7,1.9c0.8,0.9,1.2,2.2,1.2,3.6c0,0.5,0,1-0.1,1.6l-0.7,4c-0.4,2-1.4,3.6-3.1,4.9C92.9,40.6,90.8,41.2,88.3,41.2z M89.4,28.9h-3.2L85,35.7h3.2c1.9,0,3.1-0.9,3.4-2.6l0.2-1.5c0-0.2,0.1-0.5,0.1-0.9s-0.2-0.7-0.5-1.2C91,29.2,90.3,28.9,89.4,28.9z M109.5,31.4c2.6,0,4.5,0.6,5.8,1.7c1,0.9,1.5,2.1,1.5,3.7c0,0.5-0.1,1.1-0.2,1.7l-0.7,4.2c-0.5,2.5-1.5,4.3-3.2,5.3c-1.7,1-3.9,1.6-6.6,1.6c-2.8,0-4.8-0.5-6.1-1.6c-1-0.8-1.4-2-1.4-3.5c0-0.5,0.1-1.2,0.2-1.8l0.7-4.2C100.5,33.7,103.8,31.4,109.5,31.4z M110.5,39.2c0-0.2,0.1-0.5,0.1-0.9c0-0.4-0.2-0.8-0.5-1.2c-0.3-0.5-0.8-0.7-1.6-0.7c-0.8,0-1.4,0.3-1.9,0.8c-0.5,0.5-0.9,1.2-1,2l-0.5,2.7c0,0.2-0.1,0.5-0.1,0.9c0,0.4,0.2,0.8,0.5,1.2c0.3,0.4,0.8,0.6,1.6,0.6c0.8,0,1.4-0.3,1.9-0.8c0.5-0.5,0.9-1.2,1-1.9L110.5,39.2z M125.6,43.5c0,0.6,0.3,0.9,0.9,0.9s1.2-0.1,1.6-0.4l-0.2,4c-1.1,0.9-2.4,1.4-3.8,1.4c-2.2,0-3.6-0.5-4.2-1.5c-0.4-0.6-0.6-1.3-0.6-2.1c0-0.8,0-1.4,0.1-2l3.9-21.9h6.1l-3.7,21.1C125.6,43.3,125.6,43.4,125.6,43.5z M137.1,41.4c-0.1,0.4-0.1,0.9-0.1,1.3c0,1.1,0.6,1.7,1.9,1.7c1,0,1.9-0.4,2.6-1.1l2-11.4h6.1l-3.1,17.7c-0.5,3-1.7,5.4-3.6,7.2c-1.9,1.8-4,2.6-6.4,2.6c-2.4,0-4.1-0.4-5.2-1.3c-1.1-0.9-1.6-2-1.6-3.5c0-2,1.2-3.8,3.7-5.4c-1.4-0.3-2.2-1-2.6-2c-0.2-0.6-0.3-1.2-0.3-1.9s0.1-1.4,0.2-2.2l2-11.2h6.1L137.1,41.4z M137.3,54.3c1.5,0,2.6-1.4,3-4.2l0.4-2.1c-3.3,1.5-4.9,3.1-4.9,4.7c0,0.5,0.1,0.9,0.4,1.2C136.4,54.1,136.8,54.3,137.3,54.3z M176.6,39.6h-9.5l-1.6,9.4h-6.4l4.5-25.6h17.9l-1,5.6H169l-0.9,5.1h9.5L176.6,39.6z M197.9,35.5c0,0.8-0.1,1.6-0.4,2.4s-0.5,1.3-0.8,1.7l-0.4,0.5h-5.4c0.6-0.5,0.9-1.2,0.9-2c0-0.4-0.1-0.8-0.4-1c-0.3-0.3-0.6-0.4-1.1-0.4c-0.8,0-1.5,0.4-2.1,1.2l-2,11.3h-6.1l3-17.1h5.6l-0.4,2.4c1.4-1.9,3-2.9,4.9-2.9c1.5,0,2.7,0.4,3.5,1.1C197.5,33.2,197.9,34.2,197.9,35.5z M206.4,44.5c0.5,0,1-0.1,1.5-0.4l-0.2,4c-1.1,0.9-2.4,1.4-3.8,1.4c-2.2,0-3.6-0.5-4.2-1.5c-0.4-0.7-0.6-1.4-0.6-2.1c0-0.7,0-1.4,0.1-2l2.1-12h6.1l-2,11.2c0,0.1,0,0.3,0,0.4C205.4,44.1,205.7,44.5,206.4,44.5z M202.1,26.1c0-1.5,0.3-2.6,1-3.3c0.7-0.7,1.7-1.1,3.2-1.1c2,0,3,0.9,3,2.6c0,1.5-0.3,2.6-1,3.3c-0.7,0.7-1.7,1-3.2,1C203,28.7,202.1,27.8,202.1,26.1z M217.3,49.5c-4.9,0-7.4-1.7-7.4-5.1c0-0.5,0-1,0.1-1.5l0.7-4.4c0.4-2.3,1.5-4,3.2-5.3c1.7-1.2,3.9-1.8,6.7-1.8c4.8,0,7.2,1.8,7.2,5.4c0,0.5,0,1.1-0.1,1.7l-0.4,2.5h-10.9l-0.1,0.8c0,0.3-0.1,0.5-0.1,0.8c0,1.3,0.8,2,2.3,2c0.6,0,1.1-0.2,1.5-0.5c0.4-0.4,0.6-0.8,0.7-1.2l5.9,0.1C225.8,47.3,222.7,49.5,217.3,49.5z M221.5,38.8c0.1-0.4,0.1-0.8,0.1-1.1c0-0.3-0.2-0.7-0.5-1.1c-0.3-0.4-0.8-0.5-1.5-0.5c-0.7,0-1.3,0.2-1.9,0.7c-0.6,0.5-0.9,1.1-1.2,2H221.5z M241.2,38.1c0-1-0.5-1.5-1.5-1.5s-1.8,0.4-2.4,1.1l-2,11.4h-6.1l3-17.1h5.6l-0.4,2.1c1.4-1.7,3.2-2.6,5.3-2.6c2.1,0,3.5,0.5,4.2,1.6c0.4,0.7,0.6,1.4,0.6,2.3c0,0.9-0.1,1.6-0.2,2.4l-1,5.5c0,0.1,0,0.3,0,0.4c0,0.6,0.4,1,1.1,1c0.5,0,1-0.1,1.5-0.4l-0.2,4c-1.1,0.9-2.4,1.4-3.8,1.4c-3.2,0-4.8-1.4-4.8-4.1c0-0.5,0-1,0.1-1.5l0.9-4.7C241.2,38.8,241.2,38.4,241.2,38.1z M267.7,43.5c0,0.6,0.3,0.9,0.9,0.9s1.2-0.1,1.6-0.4l-0.2,4c-1.1,0.9-2.4,1.4-3.8,1.4c-2.6,0-4.1-1-4.3-2.8c-1.2,1.9-2.9,2.8-5.2,2.8c-3.9,0-5.8-1.7-5.8-5c0-0.6,0.1-1.2,0.2-1.9l0.7-4.2c0.4-2.1,1.3-3.8,2.6-5.1c1.4-1.3,3.3-1.9,5.7-1.9c1.5,0,2.7,0.3,3.6,1l1.8-10.4h6.1l-3.7,21.1C267.7,43.3,267.7,43.4,267.7,43.5z M257.2,41.8c0,0.2-0.1,0.5-0.1,0.9s0.2,0.8,0.5,1.1c0.4,0.4,1,0.6,1.8,0.6c0.8,0,1.6-0.3,2.2-1l1.1-6c-0.3-0.6-0.9-0.9-1.9-0.9c-1.8,0-2.9,0.9-3.2,2.6L257.2,41.8z M279.8,43.5c0,0.6,0.3,0.9,0.9,0.9s1.2-0.1,1.6-0.4l-0.2,4c-1.1,0.9-2.4,1.4-3.8,1.4c-2.2,0-3.6-0.5-4.2-1.5c-0.4-0.6-0.6-1.3-0.6-2.1c0-0.8,0-1.4,0.1-2l3.9-21.9h6.1l-3.7,21.1C279.8,43.3,279.8,43.4,279.8,43.5z M291.3,41.4c-0.1,0.4-0.1,0.9-0.1,1.3c0,1.1,0.6,1.7,1.9,1.7c1,0,1.9-0.4,2.6-1.1l2-11.4h6.1l-3.1,17.7c-0.5,3-1.7,5.4-3.6,7.2c-1.9,1.8-4,2.6-6.4,2.6c-2.4,0-4.1-0.4-5.2-1.3c-1.1-0.9-1.6-2-1.6-3.5c0-2,1.2-3.8,3.7-5.4c-1.4-0.3-2.2-1-2.6-2c-0.2-0.6-0.3-1.2-0.3-1.9s0.1-1.4,0.2-2.2l2-11.2h6.1L291.3,41.4z M291.5,54.3c1.5,0,2.6-1.4,3-4.2l0.4-2.1c-3.3,1.5-4.9,3.1-4.9,4.7c0,0.5,0.1,0.9,0.4,1.2C290.6,54.1,291,54.3,291.5,54.3z M104.5,73.6h-4.2l-1.4,7.8h-6.4l4.5-25.6h10.9c2.7,0,4.6,0.6,5.7,1.9c0.8,0.9,1.2,2.2,1.2,3.6c0,0.5,0,1-0.1,1.6l-0.7,4c-0.4,2-1.4,3.6-3.1,4.9C109.1,73,106.9,73.6,104.5,73.6z M105.6,61.3h-3.2l-1.2,6.7h3.2c1.9,0,3.1-0.9,3.4-2.6L108,64c0-0.2,0.1-0.5,0.1-0.9c0-0.4-0.2-0.7-0.5-1.2C107.2,61.5,106.5,61.3,105.6,61.3z M132.5,67.9c0,0.8-0.1,1.6-0.4,2.4c-0.3,0.8-0.5,1.3-0.8,1.7l-0.4,0.5h-5.4c0.6-0.5,0.9-1.2,0.9-2c0-0.4-0.1-0.8-0.4-1c-0.3-0.3-0.6-0.4-1.1-0.4c-0.8,0-1.5,0.4-2.1,1.2l-2,11.3h-6.1l3-17.1h5.6l-0.4,2.4c1.4-1.9,3-2.9,4.9-2.9c1.5,0,2.7,0.4,3.5,1.1C132.1,65.6,132.5,66.6,132.5,67.9z M144.2,63.8c2.6,0,4.5,0.6,5.8,1.7c1,0.9,1.5,2.1,1.5,3.7c0,0.5-0.1,1.1-0.2,1.7l-0.7,4.2c-0.5,2.5-1.5,4.3-3.2,5.3c-1.7,1-3.9,1.6-6.6,1.6c-2.8,0-4.8-0.5-6.1-1.6c-1-0.8-1.4-2-1.4-3.5c0-0.5,0.1-1.2,0.2-1.8l0.7-4.2C135.1,66.1,138.4,63.8,144.2,63.8z M145.2,71.5c0-0.2,0.1-0.5,0.1-0.9c0-0.4-0.2-0.8-0.5-1.2s-0.8-0.7-1.6-0.7c-0.8,0-1.4,0.3-1.9,0.8c-0.5,0.5-0.9,1.2-1,2l-0.5,2.7c0,0.2-0.1,0.5-0.1,0.9s0.2,0.8,0.5,1.2c0.3,0.4,0.8,0.6,1.6,0.6c0.8,0,1.4-0.3,1.9-0.8c0.5-0.5,0.9-1.2,1-1.9L145.2,71.5z M169.1,82c0,3.5-0.9,6.3-2.7,8.5c-1.8,2.2-4.2,3.3-7.2,3.3c-3,0-5-0.7-6-2.2c-0.6-1-0.9-2.1-0.9-3.5c0-1.4,0.1-2.7,0.4-4.1l4.6-25.8h6.1l-1.1,5.9h8.9l-0.9,5h-7c1.7,1.4,3.1,3.1,4.2,5.3C168.6,76.7,169.1,79.2,169.1,82z M162.1,87c0.5-1.2,0.8-2.8,0.8-4.7c0-1.9-0.2-3.9-0.6-5.9c-0.4-2-0.9-3.5-1.4-4.6l-2.1,12.2c-0.1,0.8-0.2,1.6-0.2,2.2c0,1.7,0.6,2.6,1.7,2.6C160.9,88.8,161.6,88.2,162.1,87z M179.3,81.9c-4.9,0-7.4-1.7-7.4-5.1c0-0.5,0-1,0.1-1.5l0.7-4.4c0.4-2.3,1.5-4,3.2-5.3c1.7-1.2,3.9-1.8,6.7-1.8c4.8,0,7.2,1.8,7.2,5.4c0,0.5,0,1.1-0.1,1.7l-0.4,2.5h-10.9l-0.1,0.8c0,0.3-0.1,0.5-0.1,0.8c0,1.3,0.8,2,2.3,2c0.6,0,1.1-0.2,1.5-0.5c0.4-0.4,0.6-0.8,0.7-1.2l5.9,0.1C187.8,79.7,184.7,81.9,179.3,81.9z M183.6,71.2c0.1-0.4,0.1-0.8,0.1-1.1c0-0.3-0.2-0.7-0.5-1.1c-0.3-0.4-0.8-0.5-1.5-0.5c-0.7,0-1.3,0.2-1.9,0.7c-0.6,0.5-0.9,1.1-1.2,2H183.6z M209.6,68c0,0.8-0.2,1.5-0.7,2.2H203c0.2-0.1,0.3-0.4,0.3-0.7c0-0.3-0.2-0.6-0.6-0.8c-0.4-0.2-0.9-0.3-1.5-0.3c-1.8,0-2.7,0.5-2.7,1.6c0,0.4,0.3,0.7,1,0.9c0.7,0.2,1.5,0.3,2.4,0.5c0.9,0.1,1.9,0.3,2.8,0.5c0.9,0.2,1.8,0.7,2.4,1.3c0.7,0.7,1,1.6,1,2.7c0,2-0.8,3.5-2.4,4.5c-1.6,1-3.9,1.5-6.9,1.5c-3,0-5.1-0.5-6.3-1.5c-1-0.8-1.4-1.8-1.4-3.1c0-0.4,0-0.8,0.1-1.2l5.9-0.1c0,0.3,0.1,0.6,0.6,0.9c0.4,0.2,1.1,0.4,1.9,0.4c0.9,0,1.5-0.1,1.9-0.3c0.4-0.2,0.6-0.5,0.6-1c0-0.3-0.3-0.6-1-0.7c-0.7-0.1-1.5-0.2-2.4-0.3c-1-0.1-1.9-0.2-2.9-0.5c-1-0.2-1.8-0.7-2.4-1.4c-0.7-0.7-1-1.6-1-2.7c0-2.2,0.8-3.8,2.5-5c1.7-1.2,4.1-1.7,7.2-1.7C207.1,63.7,209.6,65.1,209.6,68z M229.1,68c0,0.8-0.2,1.5-0.7,2.2h-5.8c0.2-0.1,0.3-0.4,0.3-0.7c0-0.3-0.2-0.6-0.6-0.8c-0.4-0.2-0.9-0.3-1.5-0.3c-1.8,0-2.7,0.5-2.7,1.6c0,0.4,0.3,0.7,1,0.9c0.7,0.2,1.5,0.3,2.4,0.5c0.9,0.1,1.9,0.3,2.8,0.5c0.9,0.2,1.8,0.7,2.4,1.3c0.7,0.7,1,1.6,1,2.7c0,2-0.8,3.5-2.4,4.5c-1.6,1-3.9,1.5-6.9,1.5c-3,0-5.1-0.5-6.3-1.5c-1-0.8-1.4-1.8-1.4-3.1c0-0.4,0-0.8,0.1-1.2l5.9-0.1c0,0.3,0.1,0.6,0.6,0.9c0.4,0.2,1.1,0.4,1.9,0.4c0.9,0,1.5-0.1,1.9-0.3c0.4-0.2,0.6-0.5,0.6-1c0-0.3-0.3-0.6-1-0.7c-0.7-0.1-1.5-0.2-2.4-0.3c-1-0.1-1.9-0.2-2.9-0.5c-1-0.2-1.8-0.7-2.4-1.4c-0.7-0.7-1-1.6-1-2.7c0-2.2,0.8-3.8,2.5-5c1.7-1.2,4.1-1.7,7.2-1.7C226.7,63.7,229.1,65.1,229.1,68z M238.4,76.8c0.5,0,1-0.1,1.5-0.4l-0.2,4c-1.1,0.9-2.4,1.4-3.8,1.4c-2.2,0-3.6-0.5-4.2-1.5c-0.4-0.7-0.6-1.4-0.6-2.1c0-0.7,0-1.4,0.1-2l2.1-12h6.1l-2,11.2c0,0.1,0,0.3,0,0.4C237.3,76.5,237.7,76.8,238.4,76.8z M234,58.5c0-1.5,0.3-2.6,1-3.3c0.7-0.7,1.7-1.1,3.2-1.1c2,0,3,0.9,3,2.6c0,1.5-0.3,2.6-1,3.3c-0.7,0.7-1.7,1-3.2,1C235,61,234,60.2,234,58.5z M252.7,63.8c2.6,0,4.5,0.6,5.8,1.7c1,0.9,1.5,2.1,1.5,3.7c0,0.5-0.1,1.1-0.2,1.7l-0.7,4.2c-0.5,2.5-1.5,4.3-3.2,5.3c-1.7,1-3.9,1.6-6.6,1.6s-4.8-0.5-6.1-1.6c-1-0.8-1.4-2-1.4-3.5c0-0.5,0.1-1.2,0.2-1.8l0.7-4.2C243.6,66.1,246.9,63.8,252.7,63.8z M253.6,71.5c0-0.2,0.1-0.5,0.1-0.9c0-0.4-0.2-0.8-0.5-1.2c-0.3-0.5-0.8-0.7-1.6-0.7c-0.8,0-1.4,0.3-1.9,0.8c-0.5,0.5-0.9,1.2-1,2l-0.5,2.7c0,0.2-0.1,0.5-0.1,0.9s0.2,0.8,0.5,1.2c0.3,0.4,0.8,0.6,1.6,0.6c0.8,0,1.4-0.3,1.9-0.8c0.5-0.5,0.9-1.2,1-1.9L253.6,71.5z M273.6,70.5c0-1-0.5-1.5-1.5-1.5s-1.8,0.4-2.4,1.1l-2,11.4h-6.1l3-17.1h5.6l-0.4,2.1c1.4-1.7,3.2-2.6,5.3-2.6s3.5,0.5,4.2,1.6c0.4,0.7,0.6,1.4,0.6,2.3c0,0.9-0.1,1.6-0.2,2.4l-1,5.5c0,0.1,0,0.3,0,0.4c0,0.6,0.4,1,1.1,1c0.5,0,1-0.1,1.5-0.4l-0.2,4c-1.1,0.9-2.4,1.4-3.8,1.4c-3.2,0-4.8-1.4-4.8-4.1c0-0.5,0-1,0.1-1.5l0.9-4.7C273.5,71.1,273.6,70.8,273.6,70.5z M300.1,75.9c0,0.6,0.3,0.9,0.9,0.9c0.6,0,1.2-0.1,1.6-0.4l-0.2,4c-1.1,0.9-2.4,1.4-3.8,1.4c-2.6,0-4.1-1-4.3-2.8c-1.2,1.9-2.9,2.8-5.2,2.8c-3.9,0-5.8-1.7-5.8-5c0-0.6,0.1-1.2,0.2-1.9l0.7-4.2c0.4-2.1,1.3-3.8,2.6-5.1c1.4-1.3,3.1-1.9,5.3-1.9c2.2,0,3.7,0.5,4.5,1.5l0.2-1.1h5.4l-2,11.2C300.1,75.6,300.1,75.8,300.1,75.9z M289.6,74.2c0,0.2-0.1,0.5-0.1,0.9s0.2,0.8,0.5,1.1c0.4,0.4,1,0.6,1.8,0.6s1.6-0.3,2.2-1l1.1-6c-0.3-0.6-0.9-0.9-1.9-0.9c-1.8,0-2.9,0.9-3.2,2.6L289.6,74.2z M311.5,75.9c0,0.6,0.3,0.9,0.9,0.9c0.6,0,1.2-0.1,1.6-0.4l-0.2,4c-1.1,0.9-2.4,1.4-3.8,1.4c-2.2,0-3.6-0.5-4.2-1.5c-0.4-0.6-0.6-1.3-0.6-2.1s0-1.4,0.1-2l3.9-21.9h6.1l-3.7,21.1C311.5,75.6,311.5,75.8,311.5,75.9z M334,68c0,0.8-0.2,1.5-0.7,2.2h-5.8c0.2-0.1,0.3-0.4,0.3-0.7c0-0.3-0.2-0.6-0.6-0.8c-0.4-0.2-0.9-0.3-1.5-0.3c-1.8,0-2.7,0.5-2.7,1.6c0,0.4,0.3,0.7,1,0.9c0.7,0.2,1.5,0.3,2.4,0.5c1,0.1,1.9,0.3,2.8,0.5c1,0.2,1.8,0.7,2.4,1.3c0.7,0.7,1,1.6,1,2.7c0,2-0.8,3.5-2.4,4.5c-1.6,1-3.9,1.5-6.9,1.5c-3,0-5.1-0.5-6.3-1.5c-1-0.8-1.4-1.8-1.4-3.1c0-0.4,0-0.8,0.1-1.2l5.9-0.1c0,0.3,0.1,0.6,0.6,0.9c0.4,0.2,1.1,0.4,1.9,0.4c0.9,0,1.5-0.1,1.9-0.3c0.4-0.2,0.6-0.5,0.6-1c0-0.3-0.3-0.6-1-0.7c-0.7-0.1-1.5-0.2-2.4-0.3c-1-0.1-1.9-0.2-2.9-0.5c-1-0.2-1.8-0.7-2.4-1.4c-0.7-0.7-1-1.6-1-2.7c0-2.2,0.8-3.8,2.5-5c1.7-1.2,4.1-1.7,7.2-1.7C331.6,63.7,334,65.1,334,68z"/>
	<path fill="#7022A1" d="M64.7,50.6c-2-3.5-4.9-6.3-8.2-8.2c0.1,7.8-3.9,15.4-11.2,19.6c-7.2,4.1-15.7,3.8-22.3,0c0,3.7,1,7.5,3,11c6.2,10.7,19.8,14.4,30.5,8.2C67.3,75,70.9,61.3,64.7,50.6z"/>
	<path fill="#3A45C8" d="M44.6,69.1c0.6-2.4,0.8-4.7,0.7-7c-7.2,4.1-15.6,3.8-22.3,0c0,3.7,1,7.5,3,11c2.3,4,5.6,7,9.5,8.9C39.8,78.9,43.2,74.5,44.6,69.1z"/>
	<path fill="#8A239C" d="M45.3,62c-0.4-7.9-5.1-15.2-12.4-18.8C26.6,47.6,23,54.7,23,62C29.7,65.8,38.2,66.1,45.3,62z"/>
	<path fill="#741C92" d="M16.8,56.6c0.5,0.6,0.9,1.1,1.5,1.6c0.1,0.1,0.2,0.2,0.3,0.4C20,60,21.4,61.1,23,62c0,0,0,0,0,0c-0.1-7.3,3.5-14.4,9.9-18.7c-1.3-0.6-2.7-1.2-4.1-1.6c-5.9-1.6-12-0.6-16.9,2.2c0,0.8,0.1,1.6,0.3,2.4c0,0.1,0,0.2,0.1,0.3c0.1,0.7,0.3,1.4,0.5,2.1c0,0.2,0.1,0.3,0.1,0.5c0.2,0.6,0.4,1.2,0.7,1.9c0.1,0.2,0.1,0.4,0.2,0.6c0.3,0.8,0.7,1.5,1.1,2.3c0.5,0.8,1,1.6,1.5,2.3C16.5,56.3,16.7,56.5,16.8,56.6z"/>
	<path fill="#A51189" d="M34.2,42.4c-0.4,0.3-0.8,0.6-1.2,0.8c7.2,3.6,11.9,10.8,12.4,18.8c0,0,0,0,0,0c7.2-4.2,11.2-11.8,11.2-19.6C49.9,38.6,41.4,38.3,34.2,42.4z"/>
	<path fill="#0D37B3" d="M26,73c-2-3.5-3-7.2-3-11c-3.3-1.9-6.2-4.6-8.2-8.2c-1.8-3.1-2.8-6.5-2.9-9.9c-5,2.9-8.9,7.6-10.5,13.6c-3.2,11.9,3.9,24.2,15.8,27.4c6.5,1.7,13.1,0.4,18.2-3.1C31.7,79.9,28.3,76.9,26,73z"/>
	<path fill="#6D016E" d="M53.6,31.5C47.4,20.8,33.7,17.1,23,23.3c-7.6,4.4-11.6,12.5-11.1,20.6c4.9-2.8,11-3.8,16.9-2.2c1.5,0.4,2.8,0.9,4.2,1.6c0.4-0.3,0.8-0.6,1.2-0.8c7.2-4.1,15.7-3.8,22.3,0C56.5,38.7,55.6,34.9,53.6,31.5z"/>
</svg>
